<mxfile host="app.diagrams.net" modified="2022-03-10T06:54:47.423Z" agent="5.0 (Windows)" etag="f8nO9Mx1v5Qaj5NSg_Vn" version="17.1.0" type="github">
  <diagram id="aVr9w3ZwwVEJyQvbq-az" name="Page-1">
    <mxGraphModel dx="1422" dy="780" grid="1" gridSize="10" guides="1" tooltips="1" connect="1" arrows="1" fold="1" page="1" pageScale="1" pageWidth="827" pageHeight="1169" background="#DDA15E" math="0" shadow="0">
      <root>
        <mxCell id="0" />
        <mxCell id="1" parent="0" />
        <mxCell id="Xs3dQTuyf7m6ERbla3pM-1" value="Actor" style="shape=umlActor;verticalLabelPosition=bottom;verticalAlign=top;html=1;outlineConnect=0;fillColor=#f5f5f5;strokeColor=#666666;gradientColor=#b3b3b3;" parent="1" vertex="1">
          <mxGeometry x="40" y="860" width="50" height="120" as="geometry" />
        </mxCell>
        <mxCell id="Xs3dQTuyf7m6ERbla3pM-4" value="Actor" style="shape=umlActor;verticalLabelPosition=bottom;verticalAlign=top;html=1;outlineConnect=0;fillColor=#f5f5f5;strokeColor=#666666;gradientColor=#b3b3b3;" parent="1" vertex="1">
          <mxGeometry x="40" y="300" width="50" height="100" as="geometry" />
        </mxCell>
        <mxCell id="Xs3dQTuyf7m6ERbla3pM-5" value="" style="endArrow=classic;html=1;rounded=0;entryX=0.182;entryY=1;entryDx=0;entryDy=0;entryPerimeter=0;" parent="1" target="Xs3dQTuyf7m6ERbla3pM-7" edge="1">
          <mxGeometry width="50" height="50" relative="1" as="geometry">
            <mxPoint x="90" y="350" as="sourcePoint" />
            <mxPoint x="140" y="300" as="targetPoint" />
          </mxGeometry>
        </mxCell>
        <mxCell id="Xs3dQTuyf7m6ERbla3pM-6" value="" style="endArrow=classic;html=1;rounded=0;entryX=0.042;entryY=0.317;entryDx=0;entryDy=0;entryPerimeter=0;" parent="1" target="Xs3dQTuyf7m6ERbla3pM-8" edge="1">
          <mxGeometry width="50" height="50" relative="1" as="geometry">
            <mxPoint x="100" y="400" as="sourcePoint" />
            <mxPoint x="140" y="440" as="targetPoint" />
          </mxGeometry>
        </mxCell>
        <mxCell id="Xs3dQTuyf7m6ERbla3pM-7" value="Postar solução" style="ellipse;whiteSpace=wrap;html=1;fillColor=#d5e8d4;strokeColor=#82b366;" parent="1" vertex="1">
          <mxGeometry x="304" y="210" width="110" height="50" as="geometry" />
        </mxCell>
        <mxCell id="Xs3dQTuyf7m6ERbla3pM-8" value="Ingressar à reunião" style="ellipse;whiteSpace=wrap;html=1;fillColor=#d5e8d4;strokeColor=#82b366;" parent="1" vertex="1">
          <mxGeometry x="230" y="420" width="120" height="60" as="geometry" />
        </mxCell>
        <mxCell id="Xs3dQTuyf7m6ERbla3pM-9" value="" style="endArrow=none;dashed=1;html=1;dashPattern=1 3;strokeWidth=2;rounded=0;exitX=0.918;exitY=0.2;exitDx=0;exitDy=0;exitPerimeter=0;" parent="1" source="Xs3dQTuyf7m6ERbla3pM-7" target="Xs3dQTuyf7m6ERbla3pM-10" edge="1">
          <mxGeometry width="50" height="50" relative="1" as="geometry">
            <mxPoint x="230" y="260" as="sourcePoint" />
            <mxPoint x="260" y="230" as="targetPoint" />
          </mxGeometry>
        </mxCell>
        <mxCell id="Xs3dQTuyf7m6ERbla3pM-10" value="Anexar arquivos" style="ellipse;whiteSpace=wrap;html=1;fillColor=#dae8fc;strokeColor=#6c8ebf;" parent="1" vertex="1">
          <mxGeometry x="439.5" y="160" width="105" height="30" as="geometry" />
        </mxCell>
        <mxCell id="Xs3dQTuyf7m6ERbla3pM-11" value="" style="endArrow=classic;html=1;rounded=0;" parent="1" target="Xs3dQTuyf7m6ERbla3pM-12" edge="1">
          <mxGeometry width="50" height="50" relative="1" as="geometry">
            <mxPoint x="90" y="880" as="sourcePoint" />
            <mxPoint x="140" y="830" as="targetPoint" />
          </mxGeometry>
        </mxCell>
        <mxCell id="Xs3dQTuyf7m6ERbla3pM-12" value="Criar reunião" style="ellipse;whiteSpace=wrap;html=1;fillColor=#d5e8d4;strokeColor=#82b366;" parent="1" vertex="1">
          <mxGeometry x="100" y="742.5" width="120" height="50" as="geometry" />
        </mxCell>
        <mxCell id="Xs3dQTuyf7m6ERbla3pM-13" value="" style="endArrow=classic;html=1;rounded=0;" parent="1" target="Xs3dQTuyf7m6ERbla3pM-14" edge="1">
          <mxGeometry width="50" height="50" relative="1" as="geometry">
            <mxPoint x="90" y="950" as="sourcePoint" />
            <mxPoint x="140" y="1010" as="targetPoint" />
          </mxGeometry>
        </mxCell>
        <mxCell id="Xs3dQTuyf7m6ERbla3pM-14" value="Criar atividade" style="ellipse;whiteSpace=wrap;html=1;fillColor=#d5e8d4;strokeColor=#82b366;" parent="1" vertex="1">
          <mxGeometry x="367.5" y="930" width="130" height="50" as="geometry" />
        </mxCell>
        <mxCell id="Xs3dQTuyf7m6ERbla3pM-15" value="" style="endArrow=none;dashed=1;html=1;dashPattern=1 3;strokeWidth=2;rounded=0;exitX=1;exitY=0;exitDx=0;exitDy=0;" parent="1" source="Xs3dQTuyf7m6ERbla3pM-12" target="Xs3dQTuyf7m6ERbla3pM-16" edge="1">
          <mxGeometry width="50" height="50" relative="1" as="geometry">
            <mxPoint x="250" y="810" as="sourcePoint" />
            <mxPoint x="300" y="760" as="targetPoint" />
          </mxGeometry>
        </mxCell>
        <mxCell id="Xs3dQTuyf7m6ERbla3pM-16" value="Mutar áudios" style="ellipse;whiteSpace=wrap;html=1;fillColor=#dae8fc;strokeColor=#6c8ebf;" parent="1" vertex="1">
          <mxGeometry x="185" y="680" width="100" height="40" as="geometry" />
        </mxCell>
        <mxCell id="Xs3dQTuyf7m6ERbla3pM-17" value="" style="endArrow=none;dashed=1;html=1;dashPattern=1 3;strokeWidth=2;rounded=0;exitX=1;exitY=0.5;exitDx=0;exitDy=0;" parent="1" source="Xs3dQTuyf7m6ERbla3pM-12" target="Xs3dQTuyf7m6ERbla3pM-18" edge="1">
          <mxGeometry width="50" height="50" relative="1" as="geometry">
            <mxPoint x="270" y="830" as="sourcePoint" />
            <mxPoint x="310" y="810" as="targetPoint" />
          </mxGeometry>
        </mxCell>
        <mxCell id="Xs3dQTuyf7m6ERbla3pM-18" value="Usar o microfone" style="ellipse;whiteSpace=wrap;html=1;fillColor=#dae8fc;strokeColor=#6c8ebf;" parent="1" vertex="1">
          <mxGeometry x="230" y="730" width="100" height="35" as="geometry" />
        </mxCell>
        <mxCell id="Xs3dQTuyf7m6ERbla3pM-19" value="" style="endArrow=none;dashed=1;html=1;dashPattern=1 3;strokeWidth=2;rounded=0;exitX=1;exitY=0.73;exitDx=0;exitDy=0;exitPerimeter=0;" parent="1" source="Xs3dQTuyf7m6ERbla3pM-12" target="Xs3dQTuyf7m6ERbla3pM-20" edge="1">
          <mxGeometry width="50" height="50" relative="1" as="geometry">
            <mxPoint x="260" y="840" as="sourcePoint" />
            <mxPoint x="350" y="840" as="targetPoint" />
          </mxGeometry>
        </mxCell>
        <mxCell id="Xs3dQTuyf7m6ERbla3pM-20" value="Usar a câmera" style="ellipse;whiteSpace=wrap;html=1;fillColor=#dae8fc;strokeColor=#6c8ebf;" parent="1" vertex="1">
          <mxGeometry x="319.5" y="770" width="100" height="30" as="geometry" />
        </mxCell>
        <mxCell id="Xs3dQTuyf7m6ERbla3pM-21" value="" style="endArrow=none;dashed=1;html=1;dashPattern=1 3;strokeWidth=2;rounded=0;exitX=1;exitY=1;exitDx=0;exitDy=0;" parent="1" source="Xs3dQTuyf7m6ERbla3pM-12" target="Xs3dQTuyf7m6ERbla3pM-22" edge="1">
          <mxGeometry width="50" height="50" relative="1" as="geometry">
            <mxPoint x="260" y="840" as="sourcePoint" />
            <mxPoint x="330" y="870" as="targetPoint" />
          </mxGeometry>
        </mxCell>
        <mxCell id="Xs3dQTuyf7m6ERbla3pM-22" value="Compartilhar tela" style="ellipse;whiteSpace=wrap;html=1;fillColor=#dae8fc;strokeColor=#6c8ebf;" parent="1" vertex="1">
          <mxGeometry x="250" y="800" width="110" height="30" as="geometry" />
        </mxCell>
        <mxCell id="Xs3dQTuyf7m6ERbla3pM-23" value="" style="endArrow=none;dashed=1;html=1;dashPattern=1 3;strokeWidth=2;rounded=0;exitX=0.75;exitY=1;exitDx=0;exitDy=0;exitPerimeter=0;" parent="1" source="Xs3dQTuyf7m6ERbla3pM-12" target="Xs3dQTuyf7m6ERbla3pM-24" edge="1">
          <mxGeometry width="50" height="50" relative="1" as="geometry">
            <mxPoint x="290" y="890" as="sourcePoint" />
            <mxPoint x="250" y="840" as="targetPoint" />
          </mxGeometry>
        </mxCell>
        <mxCell id="Xs3dQTuyf7m6ERbla3pM-24" value="Usar o chat" style="ellipse;whiteSpace=wrap;html=1;fillColor=#dae8fc;strokeColor=#6c8ebf;" parent="1" vertex="1">
          <mxGeometry x="150" y="820" width="110" height="30" as="geometry" />
        </mxCell>
        <mxCell id="Xs3dQTuyf7m6ERbla3pM-25" value="" style="endArrow=none;dashed=1;html=1;dashPattern=1 3;strokeWidth=2;rounded=0;exitX=1;exitY=0.5;exitDx=0;exitDy=0;" parent="1" target="Xs3dQTuyf7m6ERbla3pM-26" edge="1" source="Xs3dQTuyf7m6ERbla3pM-14">
          <mxGeometry width="50" height="50" relative="1" as="geometry">
            <mxPoint x="440" y="1050" as="sourcePoint" />
            <mxPoint x="320" y="1040" as="targetPoint" />
          </mxGeometry>
        </mxCell>
        <mxCell id="Xs3dQTuyf7m6ERbla3pM-26" value="Colocar descrição" style="ellipse;whiteSpace=wrap;html=1;fillColor=#dae8fc;strokeColor=#6c8ebf;" parent="1" vertex="1">
          <mxGeometry x="570" y="970" width="100" height="35" as="geometry" />
        </mxCell>
        <mxCell id="Xs3dQTuyf7m6ERbla3pM-27" value="" style="endArrow=none;dashed=1;html=1;dashPattern=1 3;strokeWidth=2;rounded=0;" parent="1" source="Xs3dQTuyf7m6ERbla3pM-14" target="Xs3dQTuyf7m6ERbla3pM-28" edge="1">
          <mxGeometry width="50" height="50" relative="1" as="geometry">
            <mxPoint x="320" y="1070" as="sourcePoint" />
            <mxPoint x="270" y="1050" as="targetPoint" />
          </mxGeometry>
        </mxCell>
        <mxCell id="Xs3dQTuyf7m6ERbla3pM-28" value="Anexar arquivos" style="ellipse;whiteSpace=wrap;html=1;fillColor=#dae8fc;strokeColor=#6c8ebf;" parent="1" vertex="1">
          <mxGeometry x="550" y="890" width="106" height="40" as="geometry" />
        </mxCell>
        <mxCell id="Xs3dQTuyf7m6ERbla3pM-29" value="" style="endArrow=none;dashed=1;html=1;dashPattern=1 3;strokeWidth=2;rounded=0;exitX=1;exitY=1;exitDx=0;exitDy=0;" parent="1" source="Xs3dQTuyf7m6ERbla3pM-14" target="Xs3dQTuyf7m6ERbla3pM-30" edge="1">
          <mxGeometry width="50" height="50" relative="1" as="geometry">
            <mxPoint x="260" y="1090" as="sourcePoint" />
            <mxPoint x="250" y="1060" as="targetPoint" />
          </mxGeometry>
        </mxCell>
        <mxCell id="Xs3dQTuyf7m6ERbla3pM-30" value="Definir prazo de entrega" style="ellipse;whiteSpace=wrap;html=1;fillColor=#dae8fc;strokeColor=#6c8ebf;" parent="1" vertex="1">
          <mxGeometry x="497.5" y="1040" width="110" height="40" as="geometry" />
        </mxCell>
        <mxCell id="Xs3dQTuyf7m6ERbla3pM-35" value="" style="endArrow=none;dashed=1;html=1;dashPattern=1 3;strokeWidth=2;rounded=0;exitX=0.783;exitY=0.1;exitDx=0;exitDy=0;exitPerimeter=0;" parent="1" source="Xs3dQTuyf7m6ERbla3pM-8" target="Xs3dQTuyf7m6ERbla3pM-36" edge="1">
          <mxGeometry width="50" height="50" relative="1" as="geometry">
            <mxPoint x="244" y="430" as="sourcePoint" />
            <mxPoint x="280" y="400" as="targetPoint" />
          </mxGeometry>
        </mxCell>
        <mxCell id="Xs3dQTuyf7m6ERbla3pM-36" value="Usar o microfone" style="ellipse;whiteSpace=wrap;html=1;fillColor=#dae8fc;strokeColor=#6c8ebf;" parent="1" vertex="1">
          <mxGeometry x="260" y="360" width="110" height="40" as="geometry" />
        </mxCell>
        <mxCell id="Xs3dQTuyf7m6ERbla3pM-37" value="" style="endArrow=none;dashed=1;html=1;dashPattern=1 3;strokeWidth=2;rounded=0;exitX=1;exitY=0.5;exitDx=0;exitDy=0;" parent="1" source="Xs3dQTuyf7m6ERbla3pM-8" target="Xs3dQTuyf7m6ERbla3pM-38" edge="1">
          <mxGeometry width="50" height="50" relative="1" as="geometry">
            <mxPoint x="260" y="450" as="sourcePoint" />
            <mxPoint x="300" y="440" as="targetPoint" />
          </mxGeometry>
        </mxCell>
        <mxCell id="Xs3dQTuyf7m6ERbla3pM-38" value="Usar a câmera" style="ellipse;whiteSpace=wrap;html=1;fillColor=#dae8fc;strokeColor=#6c8ebf;" parent="1" vertex="1">
          <mxGeometry x="385" y="345" width="105" height="40" as="geometry" />
        </mxCell>
        <mxCell id="Xs3dQTuyf7m6ERbla3pM-39" value="" style="endArrow=none;dashed=1;html=1;dashPattern=1 3;strokeWidth=2;rounded=0;entryX=0.055;entryY=0.85;entryDx=0;entryDy=0;entryPerimeter=0;exitX=1;exitY=0.5;exitDx=0;exitDy=0;" parent="1" source="Xs3dQTuyf7m6ERbla3pM-8" target="Xs3dQTuyf7m6ERbla3pM-40" edge="1">
          <mxGeometry width="50" height="50" relative="1" as="geometry">
            <mxPoint x="250" y="470" as="sourcePoint" />
            <mxPoint x="310" y="470" as="targetPoint" />
          </mxGeometry>
        </mxCell>
        <mxCell id="Xs3dQTuyf7m6ERbla3pM-40" value="Usar o chat" style="ellipse;whiteSpace=wrap;html=1;fillColor=#dae8fc;strokeColor=#6c8ebf;" parent="1" vertex="1">
          <mxGeometry x="430" y="410" width="110" height="40" as="geometry" />
        </mxCell>
        <mxCell id="Xs3dQTuyf7m6ERbla3pM-41" value="" style="endArrow=none;dashed=1;html=1;dashPattern=1 3;strokeWidth=2;rounded=0;exitX=0.973;exitY=0.38;exitDx=0;exitDy=0;exitPerimeter=0;" parent="1" source="Xs3dQTuyf7m6ERbla3pM-7" target="Xs3dQTuyf7m6ERbla3pM-42" edge="1">
          <mxGeometry width="50" height="50" relative="1" as="geometry">
            <mxPoint x="260" y="270" as="sourcePoint" />
            <mxPoint x="320" y="260" as="targetPoint" />
          </mxGeometry>
        </mxCell>
        <mxCell id="Xs3dQTuyf7m6ERbla3pM-42" value="Colocar descrição" style="ellipse;whiteSpace=wrap;html=1;fillColor=#dae8fc;strokeColor=#6c8ebf;" parent="1" vertex="1">
          <mxGeometry x="515" y="207.5" width="100" height="35" as="geometry" />
        </mxCell>
        <mxCell id="Xs3dQTuyf7m6ERbla3pM-43" value="" style="endArrow=none;dashed=1;html=1;dashPattern=1 3;strokeWidth=2;rounded=0;exitX=1;exitY=1;exitDx=0;exitDy=0;" parent="1" source="Xs3dQTuyf7m6ERbla3pM-7" target="Xs3dQTuyf7m6ERbla3pM-44" edge="1">
          <mxGeometry width="50" height="50" relative="1" as="geometry">
            <mxPoint x="250" y="290" as="sourcePoint" />
            <mxPoint x="310" y="290" as="targetPoint" />
          </mxGeometry>
        </mxCell>
        <mxCell id="Xs3dQTuyf7m6ERbla3pM-44" value="Acessar histórico de tentativas" style="ellipse;whiteSpace=wrap;html=1;fillColor=#dae8fc;strokeColor=#6c8ebf;" parent="1" vertex="1">
          <mxGeometry x="439.5" y="260" width="141" height="50" as="geometry" />
        </mxCell>
        <mxCell id="Xs3dQTuyf7m6ERbla3pM-45" value="" style="endArrow=none;dashed=1;html=1;dashPattern=1 3;strokeWidth=2;rounded=0;exitX=1;exitY=1;exitDx=0;exitDy=0;" parent="1" source="Xs3dQTuyf7m6ERbla3pM-8" target="Xs3dQTuyf7m6ERbla3pM-46" edge="1">
          <mxGeometry width="50" height="50" relative="1" as="geometry">
            <mxPoint x="235" y="475" as="sourcePoint" />
            <mxPoint x="300" y="490" as="targetPoint" />
          </mxGeometry>
        </mxCell>
        <mxCell id="Xs3dQTuyf7m6ERbla3pM-46" value="&quot;Levantar a mão&quot;" style="ellipse;whiteSpace=wrap;html=1;fillColor=#dae8fc;strokeColor=#6c8ebf;" parent="1" vertex="1">
          <mxGeometry x="415" y="480" width="100" height="40" as="geometry" />
        </mxCell>
        <mxCell id="Xs3dQTuyf7m6ERbla3pM-47" value="" style="endArrow=none;dashed=1;html=1;dashPattern=1 3;strokeWidth=2;rounded=0;exitX=0.708;exitY=0.95;exitDx=0;exitDy=0;exitPerimeter=0;" parent="1" source="Xs3dQTuyf7m6ERbla3pM-8" target="Xs3dQTuyf7m6ERbla3pM-48" edge="1">
          <mxGeometry width="50" height="50" relative="1" as="geometry">
            <mxPoint x="230" y="520" as="sourcePoint" />
            <mxPoint x="235" y="470" as="targetPoint" />
          </mxGeometry>
        </mxCell>
        <mxCell id="Xs3dQTuyf7m6ERbla3pM-48" value="Compartilhar tela" style="ellipse;whiteSpace=wrap;html=1;fillColor=#dae8fc;strokeColor=#6c8ebf;" parent="1" vertex="1">
          <mxGeometry x="329.5" y="530" width="110" height="35" as="geometry" />
        </mxCell>
        <mxCell id="Xs3dQTuyf7m6ERbla3pM-49" value="" style="endArrow=classic;html=1;rounded=0;" parent="1" target="Xs3dQTuyf7m6ERbla3pM-50" edge="1">
          <mxGeometry width="50" height="50" relative="1" as="geometry">
            <mxPoint x="80" y="300" as="sourcePoint" />
            <mxPoint x="160" y="150" as="targetPoint" />
          </mxGeometry>
        </mxCell>
        <mxCell id="Xs3dQTuyf7m6ERbla3pM-50" value="&lt;div&gt;&amp;nbsp;Visualizar o canal&lt;/div&gt;" style="ellipse;whiteSpace=wrap;html=1;fillColor=#d5e8d4;strokeColor=#82b366;" parent="1" vertex="1">
          <mxGeometry x="170" y="140" width="130" height="60" as="geometry" />
        </mxCell>
        <mxCell id="Xs3dQTuyf7m6ERbla3pM-51" value="" style="endArrow=none;dashed=1;html=1;dashPattern=1 3;strokeWidth=2;rounded=0;exitX=0.692;exitY=0.167;exitDx=0;exitDy=0;exitPerimeter=0;" parent="1" target="Xs3dQTuyf7m6ERbla3pM-52" edge="1" source="Xs3dQTuyf7m6ERbla3pM-50">
          <mxGeometry width="50" height="50" relative="1" as="geometry">
            <mxPoint x="230" y="100" as="sourcePoint" />
            <mxPoint x="280" y="70" as="targetPoint" />
          </mxGeometry>
        </mxCell>
        <mxCell id="Xs3dQTuyf7m6ERbla3pM-52" value="Acessar arquivos das aulas" style="ellipse;whiteSpace=wrap;html=1;fillColor=#dae8fc;strokeColor=#6c8ebf;" parent="1" vertex="1">
          <mxGeometry x="301.5" y="50" width="115" height="40" as="geometry" />
        </mxCell>
        <mxCell id="Xs3dQTuyf7m6ERbla3pM-53" value="" style="endArrow=none;dashed=1;html=1;dashPattern=1 3;strokeWidth=2;rounded=0;exitX=1;exitY=0;exitDx=0;exitDy=0;" parent="1" target="Xs3dQTuyf7m6ERbla3pM-54" edge="1" source="Xs3dQTuyf7m6ERbla3pM-50">
          <mxGeometry width="50" height="50" relative="1" as="geometry">
            <mxPoint x="249" y="130" as="sourcePoint" />
            <mxPoint x="290" y="110" as="targetPoint" />
          </mxGeometry>
        </mxCell>
        <mxCell id="Xs3dQTuyf7m6ERbla3pM-54" value="Postar dúvidas" style="ellipse;whiteSpace=wrap;html=1;fillColor=#dae8fc;strokeColor=#6c8ebf;" parent="1" vertex="1">
          <mxGeometry x="330" y="110" width="90.5" height="40" as="geometry" />
        </mxCell>
        <mxCell id="Xs3dQTuyf7m6ERbla3pM-55" value="" style="endArrow=none;dashed=1;html=1;dashPattern=1 3;strokeWidth=2;rounded=0;exitX=0.5;exitY=0;exitDx=0;exitDy=0;" parent="1" target="Xs3dQTuyf7m6ERbla3pM-56" edge="1" source="Xs3dQTuyf7m6ERbla3pM-50">
          <mxGeometry width="50" height="50" relative="1" as="geometry">
            <mxPoint x="175" y="90" as="sourcePoint" />
            <mxPoint x="200" y="50" as="targetPoint" />
          </mxGeometry>
        </mxCell>
        <mxCell id="Xs3dQTuyf7m6ERbla3pM-56" value="Visualizar avisos do professor" style="ellipse;whiteSpace=wrap;html=1;fillColor=#dae8fc;strokeColor=#6c8ebf;" parent="1" vertex="1">
          <mxGeometry x="175" y="70" width="110" height="40" as="geometry" />
        </mxCell>
        <mxCell id="Xs3dQTuyf7m6ERbla3pM-57" value="" style="endArrow=classic;html=1;rounded=0;" parent="1" target="Xs3dQTuyf7m6ERbla3pM-64" edge="1">
          <mxGeometry width="50" height="50" relative="1" as="geometry">
            <mxPoint x="60" y="1000" as="sourcePoint" />
            <mxPoint x="110" y="1080" as="targetPoint" />
          </mxGeometry>
        </mxCell>
        <mxCell id="Xs3dQTuyf7m6ERbla3pM-58" value="" style="endArrow=classic;html=1;rounded=0;" parent="1" target="Xs3dQTuyf7m6ERbla3pM-59" edge="1">
          <mxGeometry width="50" height="50" relative="1" as="geometry">
            <mxPoint x="100" y="900" as="sourcePoint" />
            <mxPoint x="480" y="830" as="targetPoint" />
          </mxGeometry>
        </mxCell>
        <mxCell id="Xs3dQTuyf7m6ERbla3pM-59" value="Postar no canal" style="ellipse;whiteSpace=wrap;html=1;fillColor=#d5e8d4;strokeColor=#82b366;" parent="1" vertex="1">
          <mxGeometry x="440" y="810" width="120" height="50" as="geometry" />
        </mxCell>
        <mxCell id="Xs3dQTuyf7m6ERbla3pM-60" value="" style="endArrow=none;dashed=1;html=1;dashPattern=1 3;strokeWidth=2;rounded=0;" parent="1" target="Xs3dQTuyf7m6ERbla3pM-61" edge="1">
          <mxGeometry width="50" height="50" relative="1" as="geometry">
            <mxPoint x="540" y="815" as="sourcePoint" />
            <mxPoint x="570" y="770" as="targetPoint" />
          </mxGeometry>
        </mxCell>
        <mxCell id="Xs3dQTuyf7m6ERbla3pM-61" value="Anexar arquivos" style="ellipse;whiteSpace=wrap;html=1;fillColor=#dae8fc;strokeColor=#6c8ebf;" parent="1" vertex="1">
          <mxGeometry x="530" y="732.5" width="100" height="37.5" as="geometry" />
        </mxCell>
        <mxCell id="Xs3dQTuyf7m6ERbla3pM-62" value="" style="endArrow=none;dashed=1;html=1;dashPattern=1 3;strokeWidth=2;rounded=0;" parent="1" target="Xs3dQTuyf7m6ERbla3pM-63" edge="1">
          <mxGeometry width="50" height="50" relative="1" as="geometry">
            <mxPoint x="560" y="830" as="sourcePoint" />
            <mxPoint x="600" y="800" as="targetPoint" />
          </mxGeometry>
        </mxCell>
        <mxCell id="Xs3dQTuyf7m6ERbla3pM-63" value="Enviar avisos aos alunos" style="ellipse;whiteSpace=wrap;html=1;fillColor=#dae8fc;strokeColor=#6c8ebf;" parent="1" vertex="1">
          <mxGeometry x="590" y="770" width="110" height="50" as="geometry" />
        </mxCell>
        <mxCell id="Xs3dQTuyf7m6ERbla3pM-64" value="Visualizar notificações" style="ellipse;whiteSpace=wrap;html=1;fillColor=#d5e8d4;strokeColor=#82b366;" parent="1" vertex="1">
          <mxGeometry x="165" y="1010" width="120" height="50" as="geometry" />
        </mxCell>
        <mxCell id="Xs3dQTuyf7m6ERbla3pM-65" value="" style="endArrow=classic;html=1;rounded=0;" parent="1" target="Xs3dQTuyf7m6ERbla3pM-66" edge="1">
          <mxGeometry width="50" height="50" relative="1" as="geometry">
            <mxPoint x="70" y="430" as="sourcePoint" />
            <mxPoint x="80" y="490" as="targetPoint" />
          </mxGeometry>
        </mxCell>
        <mxCell id="Xs3dQTuyf7m6ERbla3pM-66" value="Visualizar notificações" style="ellipse;whiteSpace=wrap;html=1;fillColor=#d5e8d4;strokeColor=#82b366;" parent="1" vertex="1">
          <mxGeometry x="30" y="450" width="130" height="65" as="geometry" />
        </mxCell>
        <mxCell id="Xs3dQTuyf7m6ERbla3pM-69" value="&lt;b&gt;ALUNO&lt;/b&gt;" style="text;html=1;align=center;verticalAlign=middle;resizable=0;points=[];autosize=1;strokeColor=none;fillColor=none;" parent="1" vertex="1">
          <mxGeometry x="35" y="390" width="60" height="20" as="geometry" />
        </mxCell>
        <mxCell id="Xs3dQTuyf7m6ERbla3pM-70" value="&lt;b&gt;PROFESSOR&lt;/b&gt;" style="text;html=1;align=center;verticalAlign=middle;resizable=0;points=[];autosize=1;strokeColor=none;fillColor=none;" parent="1" vertex="1">
          <mxGeometry x="20" y="970" width="90" height="20" as="geometry" />
        </mxCell>
        <mxCell id="Xs3dQTuyf7m6ERbla3pM-71" value="Visualizar os participantes" style="ellipse;whiteSpace=wrap;html=1;fillColor=#dae8fc;strokeColor=#6c8ebf;" parent="1" vertex="1">
          <mxGeometry x="60" y="670" width="110" height="35" as="geometry" />
        </mxCell>
        <mxCell id="Xs3dQTuyf7m6ERbla3pM-72" value="" style="endArrow=none;dashed=1;html=1;dashPattern=1 3;strokeWidth=2;rounded=0;exitX=0.5;exitY=0;exitDx=0;exitDy=0;entryX=0.5;entryY=1;entryDx=0;entryDy=0;" parent="1" source="Xs3dQTuyf7m6ERbla3pM-12" target="Xs3dQTuyf7m6ERbla3pM-71" edge="1">
          <mxGeometry width="50" height="50" relative="1" as="geometry">
            <mxPoint x="60" y="750" as="sourcePoint" />
            <mxPoint x="120" y="710" as="targetPoint" />
          </mxGeometry>
        </mxCell>
        <mxCell id="Xs3dQTuyf7m6ERbla3pM-75" value="Visualizar os participantes" style="ellipse;whiteSpace=wrap;html=1;fillColor=#dae8fc;strokeColor=#6c8ebf;" parent="1" vertex="1">
          <mxGeometry x="219.5" y="505" width="110" height="35" as="geometry" />
        </mxCell>
        <mxCell id="Xs3dQTuyf7m6ERbla3pM-76" value="" style="endArrow=none;dashed=1;html=1;dashPattern=1 3;strokeWidth=2;rounded=0;entryX=0.433;entryY=0.983;entryDx=0;entryDy=0;entryPerimeter=0;exitX=0.5;exitY=0;exitDx=0;exitDy=0;" parent="1" source="Xs3dQTuyf7m6ERbla3pM-75" target="Xs3dQTuyf7m6ERbla3pM-8" edge="1">
          <mxGeometry width="50" height="50" relative="1" as="geometry">
            <mxPoint x="235" y="532.5" as="sourcePoint" />
            <mxPoint x="285" y="482.5" as="targetPoint" />
          </mxGeometry>
        </mxCell>
        <mxCell id="qLayKexHHHxMtdB01akL-1" value="" style="endArrow=none;dashed=1;html=1;dashPattern=1 3;strokeWidth=2;rounded=0;exitX=0.5;exitY=1;exitDx=0;exitDy=0;" parent="1" source="Xs3dQTuyf7m6ERbla3pM-66" target="qLayKexHHHxMtdB01akL-2" edge="1">
          <mxGeometry width="50" height="50" relative="1" as="geometry">
            <mxPoint x="80" y="560" as="sourcePoint" />
            <mxPoint x="60" y="530" as="targetPoint" />
          </mxGeometry>
        </mxCell>
        <mxCell id="qLayKexHHHxMtdB01akL-2" value="Redirecionar à pagina da notificação" style="ellipse;whiteSpace=wrap;html=1;fillColor=#dae8fc;strokeColor=#6c8ebf;" parent="1" vertex="1">
          <mxGeometry x="60" y="540" width="155" height="45" as="geometry" />
        </mxCell>
        <mxCell id="qLayKexHHHxMtdB01akL-3" value="Redirecionar à pagina da notificação" style="ellipse;whiteSpace=wrap;html=1;fillColor=#dae8fc;strokeColor=#6c8ebf;" parent="1" vertex="1">
          <mxGeometry x="260" y="1080" width="155" height="45" as="geometry" />
        </mxCell>
        <mxCell id="qLayKexHHHxMtdB01akL-4" value="" style="endArrow=none;dashed=1;html=1;dashPattern=1 3;strokeWidth=2;rounded=0;exitX=0.29;exitY=-0.044;exitDx=0;exitDy=0;exitPerimeter=0;" parent="1" source="qLayKexHHHxMtdB01akL-3" target="Xs3dQTuyf7m6ERbla3pM-64" edge="1">
          <mxGeometry width="50" height="50" relative="1" as="geometry">
            <mxPoint x="90" y="1150" as="sourcePoint" />
            <mxPoint x="140" y="1120" as="targetPoint" />
          </mxGeometry>
        </mxCell>
      </root>
    </mxGraphModel>
  </diagram>
</mxfile>
